<svg width="24" height="24" viewBox="0 0 24 24" fill="none" xmlns="http://www.w3.org/2000/svg">
<path d="M6.64249 6.23371C6.21928 5.87887 5.58854 5.9343 5.2337 6.35751C4.87887 6.78072 4.9343 7.41146 5.35751 7.76629L6.64249 6.23371ZM18 17.0612L18.5182 17.9165L19.713 17.1925L18.6425 16.2949L18 17.0612ZM11.5 21H10.5V22.7752L12.0182 21.8552L11.5 21ZM11.5 3L12.0182 2.14477L10.5 1.22476V3H11.5ZM18 6.93878L18.6425 7.70507L19.713 6.80752L18.5182 6.08354L18 6.93878ZM5.35751 16.2337C4.9343 16.5885 4.87887 17.2193 5.2337 17.6425C5.58854 18.0657 6.21928 18.1211 6.64249 17.7663L5.35751 16.2337ZM5.35751 7.76629L17.3575 17.8275L18.6425 16.2949L6.64249 6.23371L5.35751 7.76629ZM17.4818 16.206L10.9818 20.1448L12.0182 21.8552L18.5182 17.9165L17.4818 16.206ZM12.5 21V3H10.5V21H12.5ZM10.9818 3.85523L17.4818 7.79401L18.5182 6.08354L12.0182 2.14477L10.9818 3.85523ZM17.3575 6.17248L5.35751 16.2337L6.64249 17.7663L18.6425 7.70507L17.3575 6.17248Z" fill="#252525"/>
</svg>
