<svg width="48" height="48" viewBox="0 0 48 48" fill="none" xmlns="http://www.w3.org/2000/svg">
<rect x="3" y="2" width="42" height="44" fill="#252525"/>
<rect x="6" y="4.75" width="36" height="11.9167" fill="#5FAB62"/>
<path d="M6 20.8116H12.6316V24.6377H6V20.8116Z" fill="#555555"/>
<path d="M15.7895 20.8116H22.4211V24.6377H15.7895V20.8116Z" fill="#555555"/>
<path d="M25.5789 20.8116H32.2105V24.6377H25.5789V20.8116Z" fill="#555555"/>
<path d="M6 26.5508H12.6316V30.3769H6V26.5508Z" fill="#555555"/>
<path d="M15.7895 26.5508H22.4211V30.3769H15.7895V26.5508Z" fill="#555555"/>
<path d="M25.5789 26.5508H32.2105V30.3769H25.5789V26.5508Z" fill="#555555"/>
<path d="M35.3684 26.5508H42V30.3769H35.3684V26.5508Z" fill="#555555"/>
<path d="M6 32.2899H12.6316V36.116H6V32.2899Z" fill="#555555"/>
<path d="M15.7895 32.2899H22.4211V36.116H15.7895V32.2899Z" fill="#555555"/>
<path d="M25.5789 32.2899H32.2105V36.116H25.5789V32.2899Z" fill="#555555"/>
<path d="M35.3684 32.2899H42V36.116H35.3684V32.2899Z" fill="#555555"/>
<path d="M6 38.029H12.6316V41.8551H6V38.029Z" fill="#555555"/>
<path d="M15.7895 38.029H22.4211V41.8551H15.7895V38.029Z" fill="#555555"/>
<path d="M25.5789 38.029H32.2105V41.8551H25.5789V38.029Z" fill="#555555"/>
<path d="M35.3684 32.2899H42V41.8551H35.3684V32.2899Z" fill="#979797"/>
<path d="M35.3684 20.8116H42V24.6377H35.3684V20.8116Z" fill="#F83B00"/>
<path d="M29 10.25H33.4211V14.0761H29V10.25Z" fill="#248328"/>
<path d="M29 10.25H33.4211V14.0761H29V10.25Z" fill="#248328"/>
<path d="M35.6316 10.25H40.0526V14.0761H35.6316V10.25Z" fill="#248328"/>
<path d="M35.6316 10.25H40.0526V14.0761H35.6316V10.25Z" fill="#248328"/>
</svg>
