<svg width="48" height="48" viewBox="0 0 48 48" fill="none" xmlns="http://www.w3.org/2000/svg">
<path fill-rule="evenodd" clip-rule="evenodd" d="M23.9999 47C36.7025 47 46.9999 36.7025 46.9999 24C46.9999 11.2975 36.7025 1 23.9999 1C12.3179 1 2.66998 9.70938 1.19522 20.9892C1.2069 20.9951 1.21856 21.0011 1.23018 21.0072L12.554 26.9672C13.7861 25.8393 15.4272 25.1512 17.2292 25.1512C17.539 25.1512 17.8442 25.1716 18.1433 25.211L22.2234 18.895C22.1504 18.4219 22.1126 17.9372 22.1126 17.4437C22.1126 12.2281 26.3406 8 31.5562 8C36.7718 8 40.9999 12.2281 40.9999 17.4437C40.9999 22.6593 36.7718 26.8873 31.5562 26.8873C31.2512 26.8873 30.9496 26.8729 30.652 26.8446L24.0848 31.087C24.131 31.4104 24.155 31.7409 24.155 32.077C24.155 35.9021 21.0542 39.0028 17.2292 39.0028C13.4041 39.0028 10.3033 35.9021 10.3033 32.077C10.3033 31.6486 10.3422 31.2293 10.4167 30.8224L1.07788 25.9072C2.04735 37.7175 11.9396 47 23.9999 47ZM17.2285 36.4833C14.7986 36.4833 12.828 34.5166 12.8216 32.0882L17.1206 34.3508C18.1975 34.9176 19.53 34.504 20.0968 33.4271C20.6636 32.3502 20.2501 31.0177 19.1731 30.4509L15.0173 28.2636C15.6672 27.8858 16.4226 27.6695 17.2285 27.6695C19.6624 27.6695 21.6355 29.6425 21.6355 32.0764C21.6355 34.5103 19.6624 36.4833 17.2285 36.4833ZM38.4825 17.444C38.4825 21.269 35.3817 24.3698 31.5567 24.3698C27.7316 24.3698 24.6308 21.269 24.6308 17.444C24.6308 13.619 27.7316 10.5182 31.5567 10.5182C35.3817 10.5182 38.4825 13.619 38.4825 17.444ZM31.5561 22.0518C34.1012 22.0518 36.1643 19.9886 36.1643 17.4435C36.1643 14.8985 34.1012 12.8353 31.5561 12.8353C29.011 12.8353 26.9479 14.8985 26.9479 17.4435C26.9479 19.9886 29.011 22.0518 31.5561 22.0518Z" fill="#345A6F"/>
<circle cx="24" cy="24" r="23" fill="#7BB890"/>
<path fill-rule="evenodd" clip-rule="evenodd" d="M16.0243 19.4113C16.6802 18.2737 17.5725 17.2896 18.634 16.5261C20.1444 15.4398 21.9975 14.8 24 14.8H45.0862C41.5371 6.67684 33.4315 1 24 1C16.4479 1 9.74599 4.63984 5.55273 10.2609L15.9912 28.5276C16.0049 28.5518 16.0187 28.5759 16.0326 28.6L15.9912 28.5276C15.0176 26.8062 14.6589 24.9017 14.8464 23.0702C14.978 21.7852 15.3786 20.5361 16.0243 19.4113Z" fill="#DA5B69"/>
<path fill-rule="evenodd" clip-rule="evenodd" d="M23.9999 47C36.7024 47 46.9999 36.7026 46.9999 24C46.9999 20.729 46.317 17.6174 45.0861 14.8H23.9999C26.004 14.8 27.8584 15.4409 29.3695 16.5288C30.428 17.2909 31.3181 18.2724 31.973 19.4068C32.6206 20.5334 33.0221 21.7847 33.1536 23.0721C33.3434 24.9288 32.9718 26.8603 31.9673 28.6001L21.3057 46.8439C22.1894 46.947 23.0885 47 23.9999 47Z" fill="#F9E76B"/>
<path fill-rule="evenodd" clip-rule="evenodd" d="M23.9999 15.95C19.554 15.95 15.9499 19.5541 15.9499 24C15.9499 28.4459 19.554 32.05 23.9999 32.05C28.4458 32.05 32.0499 28.4459 32.0499 24C32.0499 19.5541 28.4458 15.95 23.9999 15.95ZM13.6499 24C13.6499 18.2839 18.2838 13.65 23.9999 13.65C29.716 13.65 34.3499 18.2839 34.3499 24C34.3499 29.7162 29.716 34.35 23.9999 34.35C18.2838 34.35 13.6499 29.7162 13.6499 24Z" fill="white"/>
</svg>
