<svg width="48" height="48" viewBox="0 0 48 48" fill="none" xmlns="http://www.w3.org/2000/svg">
<path fill-rule="evenodd" clip-rule="evenodd" d="M20.0925 5.40221L18.9467 2.56067C18.2825 2.7136 17.6299 2.8966 16.9902 3.10815L17.4898 6.14464C16.7124 6.42817 15.9586 6.76104 15.2324 7.13944L13.3476 4.69313C12.7519 5.01954 12.1729 5.37272 11.6123 5.75105L12.9225 8.56159C12.2571 9.03993 11.6238 9.56023 11.0266 10.1186L8.53434 8.25865C8.04935 8.73225 7.58616 9.22807 7.14642 9.74447L9.17832 12.1112C8.66865 12.7458 8.19889 13.4138 7.77286 14.1114L4.85456 12.9864C4.51574 13.5712 4.20307 14.173 3.91815 14.7902L6.5252 16.5289C6.20686 17.2726 5.93459 18.0406 5.712 18.8295L2.58821 18.5326C2.4214 19.1849 2.28374 19.8488 2.1767 20.5229L5.1635 21.4962C5.05877 22.2918 5.00326 23.1029 5.00013 23.9263L1.90869 24.4838C1.92346 25.1681 1.96947 25.8448 2.04536 26.5123L5.18243 26.6436C5.29569 27.4572 5.46047 28.2543 5.67337 29.0316L2.84928 30.4013C3.04712 31.0529 3.27437 31.6916 3.5295 32.316L6.57984 31.5974C6.90743 32.3475 7.28206 33.0724 7.69998 33.7683L5.35891 35.8414C5.72481 36.4133 6.11645 36.9671 6.53217 37.5012L9.26284 35.9933C9.77922 36.627 10.3357 37.2269 10.9283 37.7889L9.24227 40.403C9.74706 40.8545 10.2728 41.283 10.8179 41.687L13.0262 39.5124C13.6941 39.9858 14.394 40.4171 15.1219 40.8025L14.2098 43.7547C14.8154 44.0525 15.4368 44.3232 16.0722 44.5653L17.6006 41.8954C18.372 42.1712 19.1664 42.3987 19.9802 42.574L19.8991 45.6365C20.5602 45.758 21.2317 45.85 21.912 45.9111L22.6569 42.9533C23.1006 42.9842 23.5485 43 24 43C24.3838 43 24.7649 42.9886 25.1431 42.9662L25.885 45.912C26.5653 45.8512 27.2366 45.7596 27.8977 45.6383L27.8177 42.6163C28.6426 42.4481 29.448 42.2263 30.2303 41.9549L31.7264 44.5685C32.3616 44.3268 32.9828 44.0564 33.5883 43.7591L32.7032 40.894C33.4508 40.508 34.1695 40.0739 34.8552 39.5957L36.9832 41.6913C37.5281 41.2878 38.0536 40.8598 38.5582 40.4088L36.9451 37.9078C37.5609 37.3344 38.1386 36.7206 38.6739 36.0706L41.2717 37.5051C41.6872 36.9716 42.0786 36.4184 42.4444 35.8472L40.2291 33.8854C40.6675 33.1672 41.0596 32.4176 41.4011 31.6408L44.2766 32.3182C44.5315 31.6945 44.7586 31.0564 44.9564 30.4056L42.3026 29.1185C42.5279 28.3111 42.7012 27.482 42.8187 26.635L45.7616 26.5119C45.8374 25.8451 45.8834 25.1692 45.8982 24.4856L43 23.963C42.9983 23.105 42.9398 22.2604 42.828 21.4328L45.6298 20.5198C45.5227 19.8464 45.3852 19.1832 45.2185 18.5316L42.2827 18.8107C42.0505 17.9912 41.7647 17.1941 41.4294 16.4237L43.8864 14.785C43.6016 14.1685 43.2891 13.5673 42.9505 12.9832L40.1883 14.0481C39.7451 13.3286 39.2552 12.641 38.723 11.9894L40.6555 9.73852C40.2159 9.22269 39.7529 8.72742 39.2682 8.25435L36.8829 10.0345C36.2666 9.46568 35.6125 8.93712 34.9248 8.45303L36.1869 5.74582C35.6265 5.36795 35.0477 5.01521 34.4522 4.68921L32.6221 7.06445C31.881 6.68637 31.1117 6.3555 30.3183 6.07583L30.8071 3.10496C30.1675 2.89377 29.515 2.71112 28.8509 2.55853L27.7197 5.36394C26.9131 5.20385 26.0881 5.09481 25.2482 5.04035L24.9146 2.02282C24.5794 2.00766 24.2424 2 23.9035 2C23.5611 2 23.2206 2.00782 22.8821 2.02329L22.547 5.05473C21.7126 5.11783 20.8933 5.23481 20.0925 5.40221ZM38 24C38 27.5296 36.6938 30.7541 34.5385 33.2165L29.5196 26.3563C29.8288 25.6329 30 24.8365 30 24C30 23.9245 29.9986 23.8493 29.9958 23.7745L37.1408 19.16C37.6965 20.6684 38 22.2987 38 24ZM26.0688 29.6338L32.6613 34.9999C30.2784 36.8788 27.2701 38 24 38C22.0433 38 20.1804 37.5986 18.4891 36.8736L23.4655 29.9765C23.6416 29.9921 23.8199 30 24 30C24.727 30 25.4239 29.8707 26.0688 29.6338ZM9.99999 24C9.99999 28.8507 12.467 33.1253 16.2147 35.6375L19.2819 27.707C18.7429 27.022 18.3499 26.2167 18.1497 25.3381L10.0561 22.7378C10.019 23.1536 9.99999 23.5746 9.99999 24ZM19.016 20.6582C19.509 19.9244 20.1597 19.3055 20.9197 18.85L20.8916 10.3463C15.8909 11.48 11.9065 15.2904 10.5242 20.1917L19.016 20.6582ZM25.6379 18.2263C26.5021 18.471 27.2869 18.9044 27.9451 19.4793L36.024 16.8248C33.5794 12.737 29.1093 10 24 10C23.8187 10 23.6382 10.0034 23.4586 10.0103L25.6379 18.2263ZM24 27C25.6568 27 27 25.6569 27 24C27 22.3431 25.6568 21 24 21C22.3431 21 21 22.3431 21 24C21 25.6569 22.3431 27 24 27Z" fill="#333333"/>
</svg>
