<svg width="48" height="48" viewBox="0 0 48 48" fill="none" xmlns="http://www.w3.org/2000/svg">
<path fill-rule="evenodd" clip-rule="evenodd" d="M24 3.12938C13.6769 4.28514 5.6518 13.0424 5.6518 23.6741C5.6518 34.3058 13.6769 43.063 24 44.2188C23.2365 44.3043 22.4604 44.3482 21.6741 44.3482C10.2561 44.3482 1 35.0921 1 23.6741C1 12.2561 10.2561 3 21.6741 3C22.4604 3 23.2365 3.0439 24 3.12938Z" fill="#FF9D00"/>
<path d="M46.9746 24.7078C46.9915 24.3653 47 24.0207 47 23.6741C47 23.3275 46.9915 22.9828 46.9746 22.6404H5.67725C5.66039 22.9828 5.65186 23.3275 5.65186 23.6741C5.65186 24.0207 5.66039 24.3654 5.67725 24.7078L46.9746 24.7078Z" fill="#6C41CE"/>
<path d="M46.769 26.7752L5.88289 26.7752C5.98838 27.4765 6.12909 28.1663 6.30318 28.8426H46.3487C46.5228 28.1663 46.6635 27.4765 46.769 26.7752Z" fill="#6C41CE"/>
<path d="M45.6984 30.91H6.95352C9.88664 38.7593 17.4536 44.3482 26.3259 44.3482C35.1983 44.3482 42.7653 38.7593 45.6984 30.91Z" fill="#6C41CE"/>
<path d="M5.88289 20.573H46.769C46.6635 19.8717 46.5228 19.1819 46.3487 18.5056H6.30318C6.1291 19.1819 5.98838 19.8717 5.88289 20.573Z" fill="#6C41CE"/>
<path d="M6.95351 16.4382H45.6984C42.7653 8.58889 35.1983 3 26.3259 3C17.4536 3 9.88662 8.58889 6.95351 16.4382Z" fill="#6C41CE"/>
</svg>
