<svg width="24" height="24" viewBox="0 0 24 24" fill="none" xmlns="http://www.w3.org/2000/svg">
<path fill-rule="evenodd" clip-rule="evenodd" d="M13.25 3C13.25 2.30964 12.6904 1.75 12 1.75C11.3096 1.75 10.75 2.30964 10.75 3V11C10.75 11.6904 11.3096 12.25 12 12.25C12.6904 12.25 13.25 11.6904 13.25 11V3ZM19.3199 5.12494C18.8366 4.63196 18.0452 4.6241 17.5522 5.10738C17.0592 5.59066 17.0514 6.38207 17.5347 6.87506C18.9063 8.27424 19.75 10.1873 19.75 12.3C19.75 16.5802 16.2802 20.05 12 20.05C7.71979 20.05 4.25 16.5802 4.25 12.3C4.25 10.1873 5.09369 8.27424 6.46533 6.87506C6.94861 6.38207 6.94075 5.59066 6.44777 5.10738C5.95478 4.6241 5.16337 4.63196 4.68009 5.12494C2.86889 6.97251 1.75 9.50684 1.75 12.3C1.75 17.9609 6.33908 22.55 12 22.55C17.6609 22.55 22.25 17.9609 22.25 12.3C22.25 9.50684 21.1311 6.97251 19.3199 5.12494Z" fill="#252525"/>
</svg>
