<svg width="24" height="24" viewBox="0 0 24 24" fill="none" xmlns="http://www.w3.org/2000/svg">
<path fill-rule="evenodd" clip-rule="evenodd" d="M6.18414 7.18414C3.93862 9.42965 3.93862 13.0703 6.18414 15.3159C8.42965 17.5614 12.0703 17.5614 14.3159 15.3159C16.5614 13.0703 16.5614 9.42965 14.3159 7.18414C12.0703 4.93862 8.42965 4.93862 6.18414 7.18414ZM4.41637 17.0836C1.19454 13.8618 1.19454 8.63819 4.41637 5.41637C7.63819 2.19454 12.8618 2.19454 16.0836 5.41637C19.0024 8.33516 19.277 12.8969 16.9072 16.1247L20.7264 19.8582C21.2189 20.342 21.226 21.1334 20.7423 21.6259C20.2585 22.1184 19.4671 22.1255 18.9746 21.6418L15.1416 17.8948C11.9128 20.2779 7.34026 20.0075 4.41637 17.0836Z" fill="#252525"/>
</svg>
