<svg width="24" height="24" viewBox="0 0 24 24" fill="none" xmlns="http://www.w3.org/2000/svg">
<path d="M4 7.33333L9 3V21L4 16.6667H0V7.33333H4Z" fill="#252525"/>
<path fill-rule="evenodd" clip-rule="evenodd" d="M17.9423 21.5736C23.1716 16.3442 23.1716 7.86574 17.9423 2.63638L19.2151 1.36359C25.1474 7.2959 25.1474 16.9141 19.2151 22.8464L17.9423 21.5736ZM15.416 19.0473C19.2502 15.2132 19.2502 8.99678 15.416 5.16263L16.6888 3.88984C21.2259 8.42694 21.2259 15.783 16.6888 20.3201L15.416 19.0473ZM12.8898 16.5211C15.3287 14.0821 15.3287 10.1278 12.8898 7.68888L14.1626 6.41609C17.3045 9.55798 17.3045 14.652 14.1626 17.7939L12.8898 16.5211ZM10.3635 13.9948C11.4073 12.9511 11.4073 11.2589 10.3635 10.2151L11.6363 8.94234C13.383 10.689 13.383 13.5209 11.6363 15.2676L10.3635 13.9948Z" fill="#252525"/>
</svg>
