<svg width="24" height="24" viewBox="0 0 24 24" fill="none" xmlns="http://www.w3.org/2000/svg">
<path fill-rule="evenodd" clip-rule="evenodd" d="M1.29289 1.29289C1.68342 0.902369 2.31658 0.902369 2.70711 1.29289L22.5061 21.0919C22.8966 21.4824 22.8966 22.1156 22.5061 22.5061C22.1156 22.8966 21.4824 22.8966 21.0919 22.5061L1.29289 2.70711C0.902369 2.31658 0.902369 1.68342 1.29289 1.29289Z" fill="#252525"/>
<path d="M4 7.33333L9 3V21L4 16.6667H0V7.33333H4Z" fill="#252525"/>
<path fill-rule="evenodd" clip-rule="evenodd" d="M17.9424 21.5736C23.1718 16.3442 23.1718 7.86574 17.9424 2.63638L19.2152 1.36359C25.1475 7.2959 25.1475 16.9141 19.2152 22.8464L17.9424 21.5736ZM15.4161 19.0473C19.2503 15.2132 19.2503 8.99678 15.4161 5.16263L16.6889 3.88984C21.226 8.42694 21.226 15.783 16.6889 20.3201L15.4161 19.0473ZM12.8899 16.5211C15.3288 14.0821 15.3288 10.1278 12.8899 7.68888L14.1627 6.41609C17.3046 9.55798 17.3046 14.652 14.1627 17.7939L12.8899 16.5211ZM10.3636 13.9948C11.4074 12.9511 11.4074 11.2589 10.3636 10.2151L11.6364 8.94234C13.3831 10.689 13.3831 13.5209 11.6364 15.2676L10.3636 13.9948Z" fill="#252525"/>
</svg>
