<svg width="48" height="48" viewBox="0 0 48 48" fill="none" xmlns="http://www.w3.org/2000/svg">
<path d="M3.74238 35.9684L0.33157 32.3302C-0.0737023 31.8979 -0.0495454 31.2183 0.385397 30.8159L33.0781 0.567513C33.5802 0.102932 34.2747 -0.0927 34.9455 0.0414589L44.4502 6.12877L5.16912 36.0872C4.73348 36.4194 4.11709 36.3681 3.74238 35.9684Z" fill="#3176B3"/>
<path d="M38.0425 35.6041L4.95746 11.7619C4.63286 11.528 4.1894 11.5507 3.89036 11.8165L0.286755 15.0197C-0.085549 15.3507 -0.0969376 15.9286 0.262041 16.274L32.1097 46.9122C32.8959 47.6686 33.9633 48.0604 35.0522 47.9924L38.0425 43.6138V35.6041Z" fill="#3681C9"/>
<path d="M46.7848 41.3439L35.0522 47.9923C35.6141 46.8686 35.9066 45.6295 35.9066 44.3732V2.77551C35.9066 1.83146 35.6075 0.91168 35.0522 0.148193L46.581 5.14398C47.3621 5.48247 47.8676 6.25248 47.8676 7.10379V39.4856C47.8676 40.2549 47.454 40.9647 46.7848 41.3439Z" fill="#3097FB"/>
</svg>
